<svg xmlns="http://www.w3.org/2000/svg" width="12in" height="12in" viewBox="0 0 864 864"><g/><g id="13"/><g id="8"/><g id="9"/><g id="12"/><g id="10"/><g id="11"/><g id="0"/><g id="2"/><g id="3"/><g id="1"/><g id="4"/><g id="5"/><g id="6"/><g id="7"/><path d="M 186.67343472047247 737.5846676165354 A 5.669291338582682 5.669291338582682 360 1 0 175.33485204330714 737.5846676165354 A 5.669291338582682 5.669291338582682 360 1 0 186.67343472047247 737.5846676165354 z" style="stroke:#000000;stroke-width:0.001;" class="active" fill="none" stroke="#000000"/><path d="M 173.0654347204725 737.5846676165354 A 5.669291338582682 5.669291338582682 360 1 0 161.72685204330713 737.5846676165354 A 5.669291338582682 5.669291338582682 360 1 0 173.0654347204725 737.5846676165354 z" style="stroke:#000000;stroke-width:0.001;" class="active" fill="none" stroke="#000000"/><path d="M 159.4574347204725 737.5846676165354 A 5.669291338582682 5.669291338582682 360 1 0 148.11885204330713 737.5846676165354 A 5.669291338582682 5.669291338582682 360 1 0 159.4574347204725 737.5846676165354 z" style="stroke:#000000;stroke-width:0.001;" class="active" fill="none" stroke="#000000"/><path d="M 145.8494347204725 737.5846676165354 A 5.669291338582682 5.669291338582682 360 1 0 134.51085204330712 737.5846676165354 A 5.669291338582682 5.669291338582682 360 1 0 145.8494347204725 737.5846676165354 z" style="stroke:#000000;stroke-width:0.001;" class="active" fill="none" stroke="#000000"/><path d="M 132.24143472047248 737.5846676165354 A 5.669291338582682 5.669291338582682 360 1 0 120.90285204330712 737.5846676165354 A 5.669291338582682 5.669291338582682 360 1 0 132.24143472047248 737.5846676165354 z" style="stroke:#000000;stroke-width:0.001;" class="active" fill="none" stroke="#000000"/><path d="M 118.63343472047247 737.5846676165354 A 5.669291338582682 5.669291338582682 360 1 0 107.29485204330712 737.5846676165354 A 5.669291338582682 5.669291338582682 360 1 0 118.63343472047247 737.5846676165354 z" style="stroke:#000000;stroke-width:0.001;" class="active" fill="none" stroke="#000000"/><path d="M 186.67343472047247 723.9766676165353 A 5.669291338582682 5.669291338582682 360 1 0 175.33485204330714 723.9766676165353 A 5.669291338582682 5.669291338582682 360 1 0 186.67343472047247 723.9766676165353 z" style="stroke:#000000;stroke-width:0.001;" class="active" fill="none" stroke="#000000"/><path d="M 173.0654347204725 723.9766676165353 A 5.669291338582682 5.669291338582682 360 1 0 161.72685204330713 723.9766676165353 A 5.669291338582682 5.669291338582682 360 1 0 173.0654347204725 723.9766676165353 z" style="stroke:#000000;stroke-width:0.001;" class="active" fill="none" stroke="#000000"/><path d="M 159.4574347204725 723.9766676165353 A 5.669291338582682 5.669291338582682 360 1 0 148.11885204330713 723.9766676165353 A 5.669291338582682 5.669291338582682 360 1 0 159.4574347204725 723.9766676165353 z" style="stroke:#000000;stroke-width:0.001;" class="active" fill="none" stroke="#000000"/><path d="M 145.8494347204725 723.9766676165353 A 5.669291338582682 5.669291338582682 360 1 0 134.51085204330712 723.9766676165353 A 5.669291338582682 5.669291338582682 360 1 0 145.8494347204725 723.9766676165353 z" style="stroke:#000000;stroke-width:0.001;" class="active" fill="none" stroke="#000000"/><path d="M 132.24143472047248 723.9766676165353 A 5.669291338582682 5.669291338582682 360 1 0 120.90285204330712 723.9766676165353 A 5.669291338582682 5.669291338582682 360 1 0 132.24143472047248 723.9766676165353 z" style="stroke:#000000;stroke-width:0.001;" class="active" fill="none" stroke="#000000"/><path d="M 118.63343472047247 723.9766676165353 A 5.669291338582682 5.669291338582682 360 1 0 107.29485204330712 723.9766676165353 A 5.669291338582682 5.669291338582682 360 1 0 118.63343472047247 723.9766676165353 z" style="stroke:#000000;stroke-width:0.001;" class="active" fill="none" stroke="#000000"/><path d="M 186.67343472047247 710.3686676165354 A 5.669291338582682 5.669291338582682 360 1 0 175.3348520433071 710.3686676165354 A 5.669291338582682 5.669291338582682 360 1 0 186.67343472047247 710.3686676165354 z" style="stroke:#000000;stroke-width:0.001;" class="active" fill="none" stroke="#000000"/><path d="M 173.0654347204725 710.3686676165354 A 5.669291338582682 5.669291338582682 360 1 0 161.72685204330713 710.3686676165354 A 5.669291338582682 5.669291338582682 360 1 0 173.0654347204725 710.3686676165354 z" style="stroke:#000000;stroke-width:0.001;" class="active" fill="none" stroke="#000000"/><path d="M 159.4574347204725 710.3686676165354 A 5.669291338582682 5.669291338582682 360 1 0 148.11885204330713 710.3686676165354 A 5.669291338582682 5.669291338582682 360 1 0 159.4574347204725 710.3686676165354 z" style="stroke:#000000;stroke-width:0.001;" class="active" fill="none" stroke="#000000"/><path d="M 145.8494347204725 710.3686676165354 A 5.669291338582682 5.669291338582682 360 1 0 134.51085204330712 710.3686676165354 A 5.669291338582682 5.669291338582682 360 1 0 145.8494347204725 710.3686676165354 z" style="stroke:#000000;stroke-width:0.001;" class="active" fill="none" stroke="#000000"/><path d="M 132.24143472047245 710.3686676165354 A 5.669291338582682 5.669291338582682 360 1 0 120.9028520433071 710.3686676165354 A 5.669291338582682 5.669291338582682 360 1 0 132.24143472047245 710.3686676165354 z" style="stroke:#000000;stroke-width:0.001;" class="active" fill="none" stroke="#000000"/><path d="M 118.63343472047247 710.3686676165354 A 5.669291338582682 5.669291338582682 360 1 0 107.29485204330712 710.3686676165354 A 5.669291338582682 5.669291338582682 360 1 0 118.63343472047247 710.3686676165354 z" style="stroke:#000000;stroke-width:0.001;" class="active" fill="none" stroke="#000000"/><path d="M 186.67343472047247 696.7606676165353 A 5.669291338582682 5.669291338582682 360 1 0 175.3348520433071 696.7606676165353 A 5.669291338582682 5.669291338582682 360 1 0 186.67343472047247 696.7606676165353 z" style="stroke:#000000;stroke-width:0.001;" class="active" fill="none" stroke="#000000"/><path d="M 173.0654347204725 696.7606676165353 A 5.669291338582682 5.669291338582682 360 1 0 161.72685204330713 696.7606676165353 A 5.669291338582682 5.669291338582682 360 1 0 173.0654347204725 696.7606676165353 z" style="stroke:#000000;stroke-width:0.001;" class="active" fill="none" stroke="#000000"/><path d="M 159.4574347204725 696.7606676165353 A 5.669291338582682 5.669291338582682 360 1 0 148.11885204330713 696.7606676165353 A 5.669291338582682 5.669291338582682 360 1 0 159.4574347204725 696.7606676165353 z" style="stroke:#000000;stroke-width:0.001;" class="active" fill="none" stroke="#000000"/><path d="M 145.8494347204725 696.7606676165353 A 5.669291338582682 5.669291338582682 360 1 0 134.51085204330712 696.7606676165353 A 5.669291338582682 5.669291338582682 360 1 0 145.8494347204725 696.7606676165353 z" style="stroke:#000000;stroke-width:0.001;" class="active" fill="none" stroke="#000000"/><path d="M 132.24143472047245 696.7606676165353 A 5.669291338582682 5.669291338582682 360 1 0 120.9028520433071 696.7606676165353 A 5.669291338582682 5.669291338582682 360 1 0 132.24143472047245 696.7606676165353 z" style="stroke:#000000;stroke-width:0.001;" class="active" fill="none" stroke="#000000"/><path d="M 118.63343472047247 696.7606676165353 A 5.669291338582682 5.669291338582682 360 1 0 107.29485204330712 696.7606676165353 A 5.669291338582682 5.669291338582682 360 1 0 118.63343472047247 696.7606676165353 z" style="stroke:#000000;stroke-width:0.001;" class="active" fill="none" stroke="#000000"/><path d="M 186.67343472047247 683.1526676165354 A 5.669291338582682 5.669291338582682 360 1 0 175.3348520433071 683.1526676165354 A 5.669291338582682 5.669291338582682 360 1 0 186.67343472047247 683.1526676165354 z" style="stroke:#000000;stroke-width:0.001;" class="active" fill="none" stroke="#000000"/><path d="M 173.0654347204725 683.1526676165354 A 5.669291338582682 5.669291338582682 360 1 0 161.72685204330713 683.1526676165354 A 5.669291338582682 5.669291338582682 360 1 0 173.0654347204725 683.1526676165354 z" style="stroke:#000000;stroke-width:0.001;" class="active" fill="none" stroke="#000000"/><path d="M 159.4574347204725 683.1526676165354 A 5.669291338582682 5.669291338582682 360 1 0 148.11885204330713 683.1526676165354 A 5.669291338582682 5.669291338582682 360 1 0 159.4574347204725 683.1526676165354 z" style="stroke:#000000;stroke-width:0.001;" class="active" fill="none" stroke="#000000"/><path d="M 145.8494347204725 683.1526676165354 A 5.669291338582682 5.669291338582682 360 1 0 134.51085204330712 683.1526676165354 A 5.669291338582682 5.669291338582682 360 1 0 145.8494347204725 683.1526676165354 z" style="stroke:#000000;stroke-width:0.001;" class="active" fill="none" stroke="#000000"/><path d="M 132.24143472047245 683.1526676165354 A 5.669291338582682 5.669291338582682 360 1 0 120.9028520433071 683.1526676165354 A 5.669291338582682 5.669291338582682 360 1 0 132.24143472047245 683.1526676165354 z" style="stroke:#000000;stroke-width:0.001;" class="active" fill="none" stroke="#000000"/><path d="M 118.63343472047247 683.1526676165354 A 5.669291338582682 5.669291338582682 360 1 0 107.29485204330712 683.1526676165354 A 5.669291338582682 5.669291338582682 360 1 0 118.63343472047247 683.1526676165354 z" style="stroke:#000000;stroke-width:0.001;" class="active" fill="none" stroke="#000000"/><path d="M 186.67343472047247 669.5446676165354 A 5.669291338582682 5.669291338582682 360 1 0 175.3348520433071 669.5446676165354 A 5.669291338582682 5.669291338582682 360 1 0 186.67343472047247 669.5446676165354 z" style="stroke:#000000;stroke-width:0.001;" class="active" fill="none" stroke="#000000"/><path d="M 173.0654347204725 669.5446676165354 A 5.669291338582682 5.669291338582682 360 1 0 161.72685204330713 669.5446676165354 A 5.669291338582682 5.669291338582682 360 1 0 173.0654347204725 669.5446676165354 z" style="stroke:#000000;stroke-width:0.001;" class="active" fill="none" stroke="#000000"/><path d="M 159.45743472047246 669.5446676165354 A 5.669291338582682 5.669291338582682 360 1 0 148.11885204330713 669.5446676165354 A 5.669291338582682 5.669291338582682 360 1 0 159.45743472047246 669.5446676165354 z" style="stroke:#000000;stroke-width:0.001;" class="active" fill="none" stroke="#000000"/><path d="M 145.8494347204725 669.5446676165354 A 5.669291338582682 5.669291338582682 360 1 0 134.51085204330712 669.5446676165354 A 5.669291338582682 5.669291338582682 360 1 0 145.8494347204725 669.5446676165354 z" style="stroke:#000000;stroke-width:0.001;" class="active" fill="none" stroke="#000000"/><path d="M 132.24143472047245 669.5446676165354 A 5.669291338582682 5.669291338582682 360 1 0 120.9028520433071 669.5446676165354 A 5.669291338582682 5.669291338582682 360 1 0 132.24143472047245 669.5446676165354 z" style="stroke:#000000;stroke-width:0.001;" class="active" fill="none" stroke="#000000"/><path d="M 118.63343472047247 669.5446676165354 A 5.669291338582682 5.669291338582682 360 1 0 107.29485204330712 669.5446676165354 A 5.669291338582682 5.669291338582682 360 1 0 118.63343472047247 669.5446676165354 z" style="stroke:#000000;stroke-width:0.001;" class="active" fill="none" stroke="#000000"/><path d="M 186.67343472047247 467.6206676165353 A 5.669291338582682 5.669291338582682 360 1 0 175.33485204330714 467.6206676165353 A 5.669291338582682 5.669291338582682 360 1 0 186.67343472047247 467.6206676165353 z" style="stroke:#000000;stroke-width:0.001;" class="active" fill="none" stroke="#000000"/><path d="M 173.0654347204725 467.6206676165353 A 5.669291338582682 5.669291338582682 360 1 0 161.72685204330713 467.6206676165353 A 5.669291338582682 5.669291338582682 360 1 0 173.0654347204725 467.6206676165353 z" style="stroke:#000000;stroke-width:0.001;" class="active" fill="none" stroke="#000000"/><path d="M 159.4574347204725 467.6206676165353 A 5.669291338582682 5.669291338582682 360 1 0 148.11885204330713 467.6206676165353 A 5.669291338582682 5.669291338582682 360 1 0 159.4574347204725 467.6206676165353 z" style="stroke:#000000;stroke-width:0.001;" class="active" fill="none" stroke="#000000"/><path d="M 145.8494347204725 467.6206676165353 A 5.669291338582682 5.669291338582682 360 1 0 134.51085204330712 467.62066761653534 A 5.669291338582682 5.669291338582682 360 1 0 145.8494347204725 467.6206676165353 z" style="stroke:#000000;stroke-width:0.001;" class="active" fill="none" stroke="#000000"/><path d="M 132.24143472047248 467.62066761653534 A 5.669291338582682 5.669291338582682 360 1 0 120.90285204330712 467.62066761653534 A 5.669291338582682 5.669291338582682 360 1 0 132.24143472047248 467.62066761653534 z" style="stroke:#000000;stroke-width:0.001;" class="active" fill="none" stroke="#000000"/><path d="M 118.63343472047247 467.62066761653534 A 5.669291338582682 5.669291338582682 360 1 0 107.29485204330712 467.62066761653534 A 5.669291338582682 5.669291338582682 360 1 0 118.63343472047247 467.62066761653534 z" style="stroke:#000000;stroke-width:0.001;" class="active" fill="none" stroke="#000000"/><path d="M 186.67343472047247 454.0126676165353 A 5.669291338582682 5.669291338582682 360 1 0 175.33485204330714 454.0126676165353 A 5.669291338582682 5.669291338582682 360 1 0 186.67343472047247 454.0126676165353 z" style="stroke:#000000;stroke-width:0.001;" class="active" fill="none" stroke="#000000"/><path d="M 173.0654347204725 454.0126676165353 A 5.669291338582682 5.669291338582682 360 1 0 161.72685204330713 454.0126676165353 A 5.669291338582682 5.669291338582682 360 1 0 173.0654347204725 454.0126676165353 z" style="stroke:#000000;stroke-width:0.001;" class="active" fill="none" stroke="#000000"/><path d="M 159.4574347204725 454.0126676165353 A 5.669291338582682 5.669291338582682 360 1 0 148.11885204330713 454.0126676165353 A 5.669291338582682 5.669291338582682 360 1 0 159.4574347204725 454.0126676165353 z" style="stroke:#000000;stroke-width:0.001;" class="active" fill="none" stroke="#000000"/><path d="M 145.8494347204725 454.0126676165353 A 5.669291338582682 5.669291338582682 360 1 0 134.51085204330712 454.0126676165353 A 5.669291338582682 5.669291338582682 360 1 0 145.8494347204725 454.0126676165353 z" style="stroke:#000000;stroke-width:0.001;" class="active" fill="none" stroke="#000000"/><path d="M 132.24143472047248 454.0126676165353 A 5.669291338582682 5.669291338582682 360 1 0 120.90285204330712 454.01266761653534 A 5.669291338582682 5.669291338582682 360 1 0 132.24143472047248 454.0126676165353 z" style="stroke:#000000;stroke-width:0.001;" class="active" fill="none" stroke="#000000"/><path d="M 118.63343472047247 454.01266761653534 A 5.669291338582682 5.669291338582682 360 1 0 107.29485204330712 454.01266761653534 A 5.669291338582682 5.669291338582682 360 1 0 118.63343472047247 454.01266761653534 z" style="stroke:#000000;stroke-width:0.001;" class="active" fill="none" stroke="#000000"/><path d="M 186.67343472047247 440.40466761653533 A 5.669291338582682 5.669291338582682 360 1 0 175.3348520433071 440.40466761653533 A 5.669291338582682 5.669291338582682 360 1 0 186.67343472047247 440.40466761653533 z" style="stroke:#000000;stroke-width:0.001;" class="active" fill="none" stroke="#000000"/><path d="M 173.0654347204725 440.40466761653533 A 5.669291338582682 5.669291338582682 360 1 0 161.72685204330713 440.40466761653533 A 5.669291338582682 5.669291338582682 360 1 0 173.0654347204725 440.40466761653533 z" style="stroke:#000000;stroke-width:0.001;" class="active" fill="none" stroke="#000000"/><path d="M 159.4574347204725 440.40466761653533 A 5.669291338582682 5.669291338582682 360 1 0 148.11885204330713 440.40466761653533 A 5.669291338582682 5.669291338582682 360 1 0 159.4574347204725 440.40466761653533 z" style="stroke:#000000;stroke-width:0.001;" class="active" fill="none" stroke="#000000"/><path d="M 145.8494347204725 440.40466761653533 A 5.669291338582682 5.669291338582682 360 1 0 134.51085204330712 440.40466761653533 A 5.669291338582682 5.669291338582682 360 1 0 145.8494347204725 440.40466761653533 z" style="stroke:#000000;stroke-width:0.001;" class="active" fill="none" stroke="#000000"/><path d="M 132.24143472047245 440.40466761653533 A 5.669291338582682 5.669291338582682 360 1 0 120.9028520433071 440.40466761653533 A 5.669291338582682 5.669291338582682 360 1 0 132.24143472047245 440.40466761653533 z" style="stroke:#000000;stroke-width:0.001;" class="active" fill="none" stroke="#000000"/><path d="M 118.63343472047247 440.40466761653533 A 5.669291338582682 5.669291338582682 360 1 0 107.29485204330712 440.40466761653533 A 5.669291338582682 5.669291338582682 360 1 0 118.63343472047247 440.40466761653533 z" style="stroke:#000000;stroke-width:0.001;" class="active" fill="none" stroke="#000000"/><path d="M 186.67343472047247 426.79666761653533 A 5.669291338582682 5.669291338582682 360 1 0 175.3348520433071 426.79666761653533 A 5.669291338582682 5.669291338582682 360 1 0 186.67343472047247 426.79666761653533 z" style="stroke:#000000;stroke-width:0.001;" class="active" fill="none" stroke="#000000"/><path d="M 173.0654347204725 426.79666761653533 A 5.669291338582682 5.669291338582682 360 1 0 161.72685204330713 426.79666761653533 A 5.669291338582682 5.669291338582682 360 1 0 173.0654347204725 426.79666761653533 z" style="stroke:#000000;stroke-width:0.001;" class="active" fill="none" stroke="#000000"/><path d="M 159.4574347204725 426.79666761653533 A 5.669291338582682 5.669291338582682 360 1 0 148.11885204330713 426.79666761653533 A 5.669291338582682 5.669291338582682 360 1 0 159.4574347204725 426.79666761653533 z" style="stroke:#000000;stroke-width:0.001;" class="active" fill="none" stroke="#000000"/><path d="M 145.8494347204725 426.79666761653533 A 5.669291338582682 5.669291338582682 360 1 0 134.51085204330712 426.79666761653533 A 5.669291338582682 5.669291338582682 360 1 0 145.8494347204725 426.79666761653533 z" style="stroke:#000000;stroke-width:0.001;" class="active" fill="none" stroke="#000000"/><path d="M 132.24143472047245 426.79666761653533 A 5.669291338582682 5.669291338582682 360 1 0 120.9028520433071 426.79666761653533 A 5.669291338582682 5.669291338582682 360 1 0 132.24143472047245 426.79666761653533 z" style="stroke:#000000;stroke-width:0.001;" class="active" fill="none" stroke="#000000"/><path d="M 118.63343472047247 426.79666761653533 A 5.669291338582682 5.669291338582682 360 1 0 107.29485204330712 426.79666761653533 A 5.669291338582682 5.669291338582682 360 1 0 118.63343472047247 426.79666761653533 z" style="stroke:#000000;stroke-width:0.001;" class="active" fill="none" stroke="#000000"/><path d="M 186.67343472047247 413.1886676165353 A 5.669291338582682 5.669291338582682 360 1 0 175.3348520433071 413.1886676165353 A 5.669291338582682 5.669291338582682 360 1 0 186.67343472047247 413.1886676165353 z" style="stroke:#000000;stroke-width:0.001;" class="active" fill="none" stroke="#000000"/><path d="M 173.0654347204725 413.1886676165353 A 5.669291338582682 5.669291338582682 360 1 0 161.72685204330713 413.1886676165353 A 5.669291338582682 5.669291338582682 360 1 0 173.0654347204725 413.1886676165353 z" style="stroke:#000000;stroke-width:0.001;" class="active" fill="none" stroke="#000000"/><path d="M 159.4574347204725 413.1886676165353 A 5.669291338582682 5.669291338582682 360 1 0 148.11885204330713 413.1886676165353 A 5.669291338582682 5.669291338582682 360 1 0 159.4574347204725 413.1886676165353 z" style="stroke:#000000;stroke-width:0.001;" class="active" fill="none" stroke="#000000"/><path d="M 145.8494347204725 413.1886676165353 A 5.669291338582682 5.669291338582682 360 1 0 134.51085204330712 413.1886676165353 A 5.669291338582682 5.669291338582682 360 1 0 145.8494347204725 413.1886676165353 z" style="stroke:#000000;stroke-width:0.001;" class="active" fill="none" stroke="#000000"/><path d="M 132.24143472047245 413.1886676165353 A 5.669291338582682 5.669291338582682 360 1 0 120.9028520433071 413.1886676165353 A 5.669291338582682 5.669291338582682 360 1 0 132.24143472047245 413.1886676165353 z" style="stroke:#000000;stroke-width:0.001;" class="active" fill="none" stroke="#000000"/><path d="M 118.63343472047247 413.1886676165353 A 5.669291338582682 5.669291338582682 360 1 0 107.29485204330712 413.1886676165353 A 5.669291338582682 5.669291338582682 360 1 0 118.63343472047247 413.1886676165353 z" style="stroke:#000000;stroke-width:0.001;" class="active" fill="none" stroke="#000000"/><path d="M 186.67343472047247 399.5806676165353 A 5.669291338582682 5.669291338582682 360 1 0 175.3348520433071 399.5806676165353 A 5.669291338582682 5.669291338582682 360 1 0 186.67343472047247 399.5806676165353 z" style="stroke:#000000;stroke-width:0.001;" class="active" fill="none" stroke="#000000"/><path d="M 173.0654347204725 399.5806676165353 A 5.669291338582682 5.669291338582682 360 1 0 161.72685204330713 399.5806676165353 A 5.669291338582682 5.669291338582682 360 1 0 173.0654347204725 399.5806676165353 z" style="stroke:#000000;stroke-width:0.001;" class="active" fill="none" stroke="#000000"/><path d="M 159.45743472047246 399.5806676165353 A 5.669291338582682 5.669291338582682 360 1 0 148.11885204330713 399.5806676165353 A 5.669291338582682 5.669291338582682 360 1 0 159.45743472047246 399.5806676165353 z" style="stroke:#000000;stroke-width:0.001;" class="active" fill="none" stroke="#000000"/><path d="M 145.8494347204725 399.5806676165353 A 5.669291338582682 5.669291338582682 360 1 0 134.51085204330712 399.5806676165353 A 5.669291338582682 5.669291338582682 360 1 0 145.8494347204725 399.5806676165353 z" style="stroke:#000000;stroke-width:0.001;" class="active" fill="none" stroke="#000000"/><path d="M 132.24143472047245 399.5806676165353 A 5.669291338582682 5.669291338582682 360 1 0 120.9028520433071 399.5806676165353 A 5.669291338582682 5.669291338582682 360 1 0 132.24143472047245 399.5806676165353 z" style="stroke:#000000;stroke-width:0.001;" class="active" fill="none" stroke="#000000"/><path d="M 118.63343472047247 399.5806676165353 A 5.669291338582682 5.669291338582682 360 1 0 107.29485204330712 399.5806676165353 A 5.669291338582682 5.669291338582682 360 1 0 118.63343472047247 399.5806676165353 z" style="stroke:#000000;stroke-width:0.001;" class="active" fill="none" stroke="#000000"/><path d="M 264.2912076196903 272.31548904222484 A 3.9685039370078705 3.9685039370078705 89.99999999999999 1 0 264.2912076196903 264.37848116820913 A 3.9685039370078705 3.9685039370078705 89.99999999999999 1 0 264.2912076196903 272.31548904222484 z" style="stroke:#000000;stroke-width:0.001;" class="active" fill="none" stroke="#000000"/><path d="M 206.18097139921778 272.3154890422249 A 3.9685039370078843 3.9685039370078843 89.99999999999999 1 0 206.18097139921778 264.37848116820913 A 3.9685039370078843 3.9685039370078843 89.99999999999999 1 0 206.18097139921778 272.3154890422249 z" style="stroke:#000000;stroke-width:0.001;" class="active" fill="none" stroke="#000000"/><path d="M 478.4177103308502 216.34026597361088 A 1.417322834645674 1.417322834645674 360 1 0 475.5830646615588 216.34026597361088 A 1.417322834645674 1.417322834645674 360 1 0 478.4177103308502 216.34026597361088 z" style="stroke:#000000;stroke-width:0.001;" class="active" fill="none" stroke="#000000"/><path d="M 478.4177103308498 145.47412424132742 A 1.417322834645674 1.417322834645674 360 1 0 475.5830646615584 145.47412424132742 A 1.417322834645674 1.417322834645674 360 1 0 478.4177103308498 145.47412424132742 z" style="stroke:#000000;stroke-width:0.001;" class="active" fill="none" stroke="#000000"/><line x1="301.0463985" x2="-0.0000015000000246345735" y1="594.0359999" y2="594.0359999" fill="none" stroke="#000000"/><line x1="454.0463985" x2="301.0463985" y1="562.9535989999999" y2="562.9535989999999" fill="none" stroke="#000000"/><line x1="301.0463985" x2="454.0463985" y1="863.9999990000001" y2="863.9999990000001" fill="none" stroke="#000000"/><line x1="422.9639998" x2="152.99999979999998" y1="207.0719999" y2="207.07199990000004" fill="none" stroke="#000000"/><line x1="422.9639998" x2="539.9639998" y1="269.96399740000004" y2="269.9639974" fill="none" stroke="#000000"/><path d="M 294.1271998 232.27199990000003 A 2.834647200000001 2.834647200000001 -90.00000000000001 0 1 299.8007998 232.27199990000003 L 299.8007998 232.27199990000003 L 299.8007998 298.87199990000005 L 299.8007998 298.87199990000005 A 2.834647200000001 2.834647200000001 -90.00000000000001 0 1 294.1271998 298.87199990000005 L 294.1271998 298.87199990000005 L 294.1271998 232.27199990000003 z" style="stroke:#000000;stroke-width:0.001;" class="active" fill="none" stroke="#000000"/><path d="M 312.1271998 232.27199990000003 A 2.834647200000001 2.834647200000001 -90.00000000000001 0 1 317.8007998 232.27199990000003 L 317.8007998 232.27199990000003 L 317.8007998 298.87199990000005 L 317.8007998 298.87199990000005 A 2.834647200000001 2.834647200000001 -90.00000000000001 0 1 312.1271998 298.87199990000005 L 312.1271998 298.87199990000005 L 312.1271998 232.27199990000003 z" style="stroke:#000000;stroke-width:0.001;" class="active" fill="none" stroke="#000000"/><path d="M 330.1271998 232.27199990000003 A 2.834647200000001 2.834647200000001 -90.00000000000001 0 1 335.8007998 232.27199990000003 L 335.8007998 232.27199990000003 L 335.80079980000005 298.8719999 L 335.80079980000005 298.8719999 A 2.834647200000001 2.834647200000001 -90.00000000000001 1 1 330.1271998 298.8719999 L 330.1271998 298.8719999 L 330.1271998 232.27199990000003 z" style="stroke:#000000;stroke-width:0.001;" class="active" fill="none" stroke="#000000"/><path d="M 348.1271998 232.27199990000003 A 2.834647200000001 2.834647200000001 -90.00000000000001 0 1 353.8007998 232.27199990000003 L 353.8007998 232.27199990000003 L 353.80079980000005 298.8719999 L 353.80079980000005 298.8719999 A 2.834647200000001 2.834647200000001 -90.00000000000001 0 1 348.1271998 298.8719999 L 348.1271998 298.8719999 L 348.1271998 232.27199990000003 z" style="stroke:#000000;stroke-width:0.001;" class="active" fill="none" stroke="#000000"/><path d="M 366.12719979999997 232.27199990000003 A 2.834647200000001 2.834647200000001 -90.00000000000001 0 1 371.8007998 232.27199990000003 L 371.8007998 232.27199990000003 L 371.80079980000005 298.8719999 L 371.80079980000005 298.8719999 A 2.834647200000001 2.834647200000001 -90.00000000000001 0 1 366.1271998 298.8719999 L 366.1271998 298.8719999 L 366.12719979999997 232.27199990000003 z" style="stroke:#000000;stroke-width:0.001;" class="active" fill="none" stroke="#000000"/><path d="M 255.78719980000002 279.6839999 A 1.4173200000000006 1.4173200000000006 -90.00000000000001 0 0 257.2055998 278.26559990000004 L 257.2055998 278.26559990000004 L 257.2055998 258.4223999 L 257.2055998 258.4223999 A 1.4173200000000006 1.4173200000000006 -90.00000000000001 0 0 255.7871998 257.01119990000007 L 255.7871998 257.01119990000007 L 221.7743998 257.01119990000007 L 221.7743998 257.01119990000007 A 8.50392 8.50392 -90.00000000000001 0 0 213.2639998 265.51439990000006 L 213.2639998 265.51439990000006 L 213.2639998 271.1807999 L 213.2639998 271.1807999 A 8.50392 8.50392 -90.00000000000001 0 0 221.77439980000003 279.68399990000006 L 221.77439980000003 279.68399990000006 L 255.78719980000002 279.6839999 z" style="stroke:#000000;stroke-width:0.001;" class="active" fill="none" stroke="#000000"/><path d="M 448.1639998 128.8367974 A 2.834647200000001 2.834647200000001 180 0 1 448.1639998 123.1631974 L 448.1639998 123.1631974 L 514.7639998 123.16319739999999 L 514.7639998 123.16319739999999 A 2.834647200000001 2.834647200000001 180 0 1 514.7639998 128.8367974 L 514.7639998 128.8367974 L 448.1639998 128.8367974 z" style="stroke:#000000;stroke-width:0.001;" class="active" fill="none" stroke="#000000"/><path d="M 448.1639998 110.8367974 A 2.834647200000001 2.834647200000001 180 0 1 448.1639998 105.1631974 L 448.1639998 105.1631974 L 514.7639998 105.16319739999999 L 514.7639998 105.16319739999999 A 2.834647200000001 2.834647200000001 180 0 1 514.7639998 110.83679739999998 L 514.7639998 110.83679739999998 L 448.1639998 110.8367974 z" style="stroke:#000000;stroke-width:0.001;" class="active" fill="none" stroke="#000000"/><path d="M 448.1639998 92.8367974 A 2.834647200000001 2.834647200000001 180 1 1 448.1639998 87.1631974 L 448.1639998 87.1631974 L 514.7639998 87.16319739999999 L 514.7639998 87.16319739999999 A 2.834647200000001 2.834647200000001 180 0 1 514.7639998 92.83679739999998 L 514.7639998 92.83679739999998 L 448.1639998 92.8367974 z" style="stroke:#000000;stroke-width:0.001;" class="active" fill="none" stroke="#000000"/><path d="M 448.1639998 74.8367974 A 2.834647200000001 2.834647200000001 180 0 1 448.1639998 69.1631974 L 448.1639998 69.1631974 L 514.7639998 69.16319739999999 L 514.7639998 69.16319739999999 A 2.834647200000001 2.834647200000001 180 0 1 514.7639998 74.83679739999998 L 514.7639998 74.83679739999998 L 448.1639998 74.8367974 z" style="stroke:#000000;stroke-width:0.001;" class="active" fill="none" stroke="#000000"/><path d="M 448.1639998 56.83679740000001 A 2.834647200000001 2.834647200000001 180 0 1 448.1639998 51.1631974 L 448.1639998 51.1631974 L 514.7639998 51.16319739999999 L 514.7639998 51.16319739999999 A 2.834647200000001 2.834647200000001 180 0 1 514.7639998 56.836797399999995 L 514.7639998 56.836797399999995 L 448.1639998 56.83679740000001 z" style="stroke:#000000;stroke-width:0.001;" class="active" fill="none" stroke="#000000"/><path d="M 460.56239980000004 199.0511974 A 8.50392 8.50392 180 0 0 469.06559980000003 207.5543974 L 469.06559980000003 207.5543974 L 484.93439980000005 207.5543974 L 484.93439980000005 207.5543974 A 8.50392 8.50392 180 0 0 493.4447998 199.0511974 L 493.4447998 199.0511974 L 493.4447998 157.09679739999999 L 493.4447998 157.09679739999999 A 2.834647200000001 2.834647200000001 180 0 0 490.6079998 154.2599974 L 490.6079998 154.2599974 L 463.3919998 154.2599974 L 463.3919998 154.2599974 A 2.834647200000001 2.834647200000001 180 0 0 460.5623998 157.09679739999999 L 460.5623998 157.09679739999999 L 460.56239980000004 199.0511974 z" style="stroke:#000000;stroke-width:0.001;" class="active" fill="none" stroke="#000000"/><path d="M 152.99999984476716 301.0463984654614 L -1.5523283281027034e-7 301.0463984654614 L -1.5523283281027034e-7 301.0463984654614 L -1.552328541265524e-7 -0.0000015345387112120088 L -1.552328541265524e-7 -0.0000015345387112120088 L 152.99999984476716 -0.0000015345387112120088 L 152.9999998447672 -0.0000015345386827902985 L 152.99999984476716 324.07199990000004" fill="none" stroke="#000000"/><path d="M 59.35679984476715 49.18319846546132 L 59.35679984476715 41.16239846546132 L 59.35679984476715 41.16239846546132 L 93.37679984476716 41.16239846546132 L 93.37679984476716 41.16239846546132 L 93.37679984476716 49.18319846546132" fill="none" stroke="#000000"/><path d="M 21.088799844767152 49.18319846546132 L 21.088799844767163 251.86319846546132 L 21.088799844767163 251.86319846546132 L 59.35679984476717 251.86319846546132 L 59.35679984476717 251.86319846546132 L 59.35679984476717 259.88399846546133 L 59.35679984476717 259.88399846546133 L 93.37679984476716 259.88399846546133 L 93.37679984476716 259.88399846546133 L 93.37679984476716 251.86319846546132 L 93.37679984476716 251.86319846546132 L 131.63759984476715 251.86319846546132 L 131.63759984476715 251.86319846546132 L 131.63759984476715 49.18319846546132 L 131.63759984476715 49.18319846546132 L 77.63759800126475 49.18319846546132" fill="none" stroke="#000000"/><path d="M 301.04639849999995 324.0719998999999 L 301.0463985000002 863.9999998999999 L 301.04639850000007 863.9999998999999 L -0.0000014999999962128653 863.9999999 L -0.0000015000000081040473 863.9999999 L -0.0000015000000411651023 324.0719998999999 L -0.000001500000053056283 324.0719999 L 422.9639998 324.0719998999999 L 422.9639998 324.0719999 L 422.9639998 -0.0000025999999593295797 L 422.9639998 -0.000002599999987751289 L 539.9639998 -0.0000026000000161729986" fill="none" stroke="#000000"/><path d="M 454.0463985 526.9535996 L 454.04639850000007 863.9999996 L 454.04639850000007 863.9999996 L 508.0463985000001 863.9999995999999 L 508.0463985000001 863.9999995999999 L 508.0463985 526.9535996" fill="none" stroke="#000000"/><path d="M 562.0463985 526.9535996 L 562.0463985 863.9999996000001 L 562.0463985 863.9999996000001 L 508.0463985 863.9999996000001" fill="none" stroke="#000000"/><path d="M 593.9639998 -0.0000043000000289339385 L 593.9639998000001 337.04639570000006 L 593.9639998000001 337.04639570000006 L 539.9639998000001 337.04639570000006 L 539.9639998000001 337.04639570000006 L 539.9639998 -0.000004300000000512229 L 539.9639998 -0.000004300000000512227 L 593.9639998 -0.000004300000028933937 z" fill="none" stroke="#000000"/><path d="M 301.04639849999995 472.9535995999999 L 638.0927985000001 472.9535995999999 L 638.0927985000001 472.9535995999999 L 638.0927985000001 526.9535996 L 638.0927985000001 526.9535996 L 301.04639849999995 526.9535996" fill="none" stroke="#000000"/><path d="M 305.9999998 207.07199990000004 L 305.9999998 153.0719999 L 305.9999998 153.0719999 L 152.9999998 153.07199990000004" fill="none" stroke="#000000"/><path d="M 21.088798751089698 202.18319892490362 L 75.08879875108971 202.1831989249036 L 75.08879875108971 202.1831989249036 L 75.08879875108968 49.18319892490359 L 75.08879875108968 49.18319892490359 L 21.08879875108967 49.18319892490362" fill="none" stroke="#000000"/><path d="M 77.63759800126475 49.18319892490362 L 77.63759800126478 202.18319892490362 L 77.63759800126478 202.18319892490362 L 131.6375980012648 202.1831989249036" fill="none" stroke="#000000"/><path d="M 206.9999998 153.07199990000004 L 206.99999979999998 0.07199990000000867 L 206.99999979999998 0.07199990000000867 L 152.99999979999996 0.07199990000003709" fill="none" stroke="#000000"/></svg>