0
SECTION
2
HEADER
9
$INSUNITS
70
1
9
$ACADVER
1
AC1014
9
$HANDSEED
5
FFFF
0
ENDSEC
0
SECTION
2
TABLES
0
TABLE
2
VPORT
5
8
100
AcDbSymbolTable
0
ENDTAB
0
TABLE
2
LTYPE
5
5
100
AcDbSymbolTable
0
LTYPE
5
14
100
AcDbSymbolTableRecord
100
AcDbLinetypeTableRecord
2
BYBLOCK
70
0
0
LTYPE
5
15
100
AcDbSymbolTableRecord
100
AcDbLinetypeTableRecord
2
BYLAYER
70
0
0
LTYPE
5
16
100
AcDbSymbolTableRecord
100
AcDbLinetypeTableRecord
2
DASHED
70
0
3
Dashed __ __ __ __ __ __ __ __ __ __ __ __ __ _
72
65
73
2
40
0.75
49
0.5
74
0
49
-0.25
74
0
0
ENDTAB
0
TABLE
2
LAYER
5
2
100
AcDbSymbolTable
70
2
0
LAYER
5
50
100
AcDbSymbolTableRecord
100
AcDbLayerTableRecord
2
0
70
0
62
7
6
CONTINUOUS
0
ENDTAB
0
TABLE
2
STYLE
5
3
100
AcDbSymbolTable
70
1
0
STYLE
5
11
100
AcDbSymbolTableRecord
100
AcDbTextStyleTableRecord
2
STANDARD
70
0
0
ENDTAB
0
TABLE
2
VIEW
5
6
100
AcDbSymbolTable
70
0
0
ENDTAB
0
TABLE
2
UCS
5
7
100
AcDbSymbolTable
70
0
0
ENDTAB
0
TABLE
2
APPID
5
9
100
AcDbSymbolTable
70
2
0
APPID
5
12
100
AcDbSymbolTableRecord
100
AcDbRegAppTableRecord
2
ACAD
70
0
0
ENDTAB
0
TABLE
2
DIMSTYLE
5
A
100
AcDbSymbolTable
70
1
0
ENDTAB
0
TABLE
2
BLOCK_RECORD
5
1
100
AcDbSymbolTable
70
1
0
BLOCK_RECORD
5
1F
100
AcDbSymbolTableRecord
100
AcDbBlockTableRecord
2
*MODEL_SPACE
0
BLOCK_RECORD
5
1B
100
AcDbSymbolTableRecord
100
AcDbBlockTableRecord
2
*PAPER_SPACE
0
ENDTAB
0
ENDSEC
0
SECTION
2
BLOCKS
0
BLOCK
5
20
100
AcDbEntity
100
AcDbBlockBegin
2
*MODEL_SPACE
0
ENDBLK
5
21
100
AcDbEntity
100
AcDbBlockEnd
0
BLOCK
5
1C
100
AcDbEntity
100
AcDbBlockBegin
2
*PAPER_SPACE
0
ENDBLK
5
1D
100
AcDbEntity
100
AcDbBlockEnd
0
ENDSEC
0
SECTION
2
ENTITIES
0
LWPOLYLINE
5
100
100
AcDbEntity
8
0
100
AcDbPolyline
90
4
70
1
43
0.0
10
-0.34999999999999992
20
-0.59006299212598767
10
-1.2750000000000001
20
-0.59006299212598767
42
-0.99999999999999989
10
-1.2750000000000001
20
-0.5113228346456723
10
-0.34999999999999992
20
-0.5113228346456723
42
-0.99999999999999989
0
LWPOLYLINE
5
101
100
AcDbEntity
8
0
100
AcDbPolyline
90
4
70
1
43
0.0
10
-0.34999999999999992
20
-0.84006299212598756
10
-1.2750000000000001
20
-0.84006299212598756
42
-0.99999999999999989
10
-1.2750000000000001
20
-0.76132283464567219
10
-0.34999999999999987
20
-0.76132283464567219
42
-0.99999999999999989
0
LWPOLYLINE
5
102
100
AcDbEntity
8
0
100
AcDbPolyline
90
4
70
1
43
0.0
10
-0.34999999999999992
20
-1.0900629921259877
10
-1.2750000000000001
20
-1.0900629921259877
42
-0.99999999999999989
10
-1.2750000000000001
20
-1.0113228346456722
10
-0.35000000000000009
20
-1.0113228346456722
42
-0.99999999999999989
0
LWPOLYLINE
5
103
100
AcDbEntity
8
0
100
AcDbPolyline
90
4
70
1
43
0.0
10
-0.34999999999999992
20
-1.3400629921259877
10
-1.2750000000000001
20
-1.3400629921259877
42
-0.99999999999999989
10
-1.2750000000000001
20
-1.2613228346456724
10
-0.34999999999999976
20
-1.2613228346456724
42
-0.99999999999999989
0
LWPOLYLINE
5
104
100
AcDbEntity
8
0
100
AcDbPolyline
90
4
70
1
43
0.0
10
-0.34999999999999992
20
-1.5900629921259877
10
-1.2750000000000001
20
-1.5900629921259877
42
-0.99999999999999989
10
-1.2750000000000001
20
-1.5113228346456722
10
-0.35000000000000003
20
-1.5113228346456726
42
-0.99999999999999989
0
LWPOLYLINE
5
105
100
AcDbEntity
8
0
100
AcDbPolyline
90
8
70
1
43
0.0
10
-0.56152900671674577
20
-0.15817877199818553
10
-0.9394817626222578
20
-0.15817877199818756
42
-0.41421356237309881
10
-0.97885184136241543
20
-0.11880869325803041
10
-0.97885184136241876
20
0.46386847209630017
42
-0.41421356237309503
10
-0.86074160514194709
20
0.58197870831677323
10
-0.64026916419706503
20
0.58197870831677456
42
-0.41421356237309503
10
-0.52215892797659191
20
0.46386847209630278
10
-0.52215892797658825
20
-0.11880869325802769
42
-0.41421356237309503
0
CIRCLE
5
106
100
AcDbEntity
8
0
100
AcDbCircle
10
-0.75050538466950667
20
0.70402595241126209
30
0
40
0.019685039370078757
210
0
220
0
230
1
0
CIRCLE
5
107
100
AcDbEntity
8
0
100
AcDbCircle
10
-0.75050538466950112
20
-0.28022601609267467
30
0
40
0.019685039370078757
210
0
220
0
230
1
0
LWPOLYLINE
5
108
100
AcDbEntity
8
0
100
AcDbPolyline
90
4
70
1
43
0.0
10
0
20
-2.3006929133858298
10
0
20
1.4488188976377951
10
-1.625
20
1.4488188976377951
10
-1.625
20
-2.3006929133858298
0
ENDSEC
0
SECTION
2
OBJECTS
0
DICTIONARY
5
C
100
AcDbDictionary
3
ACAD_GROUP
350
D
3
ACAD_MLINESTYLE
350
17
0
DICTIONARY
5
D
100
AcDbDictionary
0
DICTIONARY
5
1A
330
C
100
AcDbDictionary
0
DICTIONARY
5
17
100
AcDbDictionary
0
ENDSEC
0
EOF
